<svg xmlns="http://www.w3.org/2000/svg" xmlns:xlink="http://www.w3.org/1999/xlink" xmlns:dc="http://purl.org/dc/elements/1.1/" xmlns:cc="http://creativecommons.org/ns#" xmlns:rdf="http://www.w3.org/1999/02/22-rdf-syntax-ns#" xmlns:svg="http://www.w3.org/2000/svg"><defs><clipPath id="clipPath18" clipPathUnits="userSpaceOnUse"><path id="path16" d="M 0,32.418 H 44.574 V 0 H 0 Z"/></clipPath></defs><symbol id="icon-arrow" viewBox="0 0 31.49 31.49">
<path style="fill:#1E201D;" d="M21.205,5.007c-0.429-0.444-1.143-0.444-1.587,0c-0.429,0.429-0.429,1.143,0,1.571l8.047,8.047H1.111
	C0.492,14.626,0,15.118,0,15.737c0,0.619,0.492,1.127,1.111,1.127h26.554l-8.047,8.032c-0.429,0.444-0.429,1.159,0,1.587
	c0.444,0.444,1.159,0.444,1.587,0l9.952-9.952c0.444-0.429,0.444-1.143,0-1.571L21.205,5.007z"/>
<g>
</g>
<g>
</g>
<g>
</g>
<g>
</g>
<g>
</g>
<g>
</g>
<g>
</g>
<g>
</g>
<g>
</g>
<g>
</g>
<g>
</g>
<g>
</g>
<g>
</g>
<g>
</g>
<g>
</g>
</symbol><symbol id="icon-basket" viewBox="0 0 512 512">
<g>
	<g>
		<path d="M473.043,164.174h-26.541c-0.203-0.226-0.393-0.459-0.61-0.675L301.197,18.803c-6.519-6.52-17.091-6.52-23.611,0
			s-6.52,17.091,0,23.611l121.759,121.759H112.654L234.414,42.414c6.52-6.52,6.52-17.091,0-23.611c-6.519-6.52-17.091-6.52-23.611,0
			L66.107,163.499c-0.217,0.217-0.407,0.45-0.61,0.675H38.957C17.476,164.174,0,181.65,0,203.13v22.261
			c0,20.461,15.855,37.287,35.924,38.84l32,192.003c4.043,24.251,24.82,41.853,49.406,41.853H399.56
			c24.765,0,46.081-18.488,49.584-43.004l27.268-190.88c19.91-1.714,35.587-18.467,35.587-38.812V203.13
			C512,181.65,494.524,164.174,473.043,164.174z M478.609,225.391c0,3.069-2.497,5.565-5.565,5.565c-5.126,0-159.642,0-166.956,0
			c-9.22,0-16.696,7.475-16.696,16.696c0,9.22,7.475,16.696,16.696,16.696h136.576L416.09,450.362
			c-1.168,8.172-8.273,14.334-16.529,14.334H117.33c-8.195,0-15.121-5.867-16.469-13.951L69.796,264.348h136.117
			c9.22,0,16.696-7.475,16.696-16.696c0-9.22-7.475-16.696-16.696-16.696c-7.325,0-161.852,0-166.956,0
			c-3.069,0-5.565-2.497-5.565-5.565V203.13c0-3.069,2.497-5.565,5.565-5.565h434.087c3.069,0,5.565,2.497,5.565,5.565V225.391z"/>
	</g>
</g>
<g>
	<g>
		<path d="M155.826,297.739c-9.22,0-16.696,7.475-16.696,16.696v100.174c0,9.22,7.475,16.696,16.696,16.696
			s16.696-7.475,16.696-16.696V314.434C172.522,305.214,165.047,297.739,155.826,297.739z"/>
	</g>
</g>
<g>
	<g>
		<path d="M256,297.739c-9.22,0-16.696,7.475-16.696,16.696v100.174c0,9.22,7.475,16.696,16.696,16.696
			c9.22,0,16.696-7.475,16.696-16.696V314.434C272.696,305.214,265.22,297.739,256,297.739z"/>
	</g>
</g>
<g>
	<g>
		<path d="M356.174,297.739c-9.22,0-16.696,7.475-16.696,16.696v100.174c0,9.22,7.475,16.696,16.696,16.696
			c9.22,0,16.696-7.475,16.696-16.696V314.434C372.87,305.214,365.394,297.739,356.174,297.739z"/>
	</g>
</g>
</symbol><symbol id="icon-facebook" viewBox="0 0 96.124 96.123">
  <path d="M72.089,0.02L59.624,0C45.62,0,36.57,9.285,36.57,23.656v10.907H24.037c-1.083,0-1.96,0.878-1.96,1.961v15.803
    c0,1.083,0.878,1.96,1.96,1.96h12.533v39.876c0,1.083,0.877,1.96,1.96,1.96h16.352c1.083,0,1.96-0.878,1.96-1.96V54.287h14.654
    c1.083,0,1.96-0.877,1.96-1.96l0.006-15.803c0-0.52-0.207-1.018-0.574-1.386c-0.367-0.368-0.867-0.575-1.387-0.575H56.842v-9.246
    c0-4.444,1.059-6.7,6.848-6.7l8.397-0.003c1.082,0,1.959-0.878,1.959-1.96V1.98C74.046,0.899,73.17,0.022,72.089,0.02z"/>
</symbol><symbol id="icon-google" viewBox="0 0 512 512">
  <g>
  	<g>
  		<polygon points="448,224 448,160 416,160 416,224 352,224 352,256 416,256 416,320 448,320 448,256 512,256 512,224 		"/>
  	</g>
  </g>
  <g>
  	<g>
  		<path d="M160,224v64h90.528c-13.216,37.248-48.8,64-90.528,64c-52.928,0-96-43.072-96-96c0-52.928,43.072-96,96-96
  			c22.944,0,45.024,8.224,62.176,23.168l42.048-48.256C235.424,109.824,198.432,96,160,96C71.776,96,0,167.776,0,256
  			s71.776,160,160,160s160-71.776,160-160v-32H160z"/>
  	</g>
  </g>
</symbol><symbol id="icon-instagram" viewBox="0 0 169.063 169.063">
  <path d="M122.406,0H46.654C20.929,0,0,20.93,0,46.655v75.752c0,25.726,20.929,46.655,46.654,46.655h75.752
    c25.727,0,46.656-20.93,46.656-46.655V46.655C169.063,20.93,148.133,0,122.406,0z M154.063,122.407
    c0,17.455-14.201,31.655-31.656,31.655H46.654C29.2,154.063,15,139.862,15,122.407V46.655C15,29.201,29.2,15,46.654,15h75.752
    c17.455,0,31.656,14.201,31.656,31.655V122.407z"/>
  <path d="M84.531,40.97c-24.021,0-43.563,19.542-43.563,43.563c0,24.02,19.542,43.561,43.563,43.561s43.563-19.541,43.563-43.561
    C128.094,60.512,108.552,40.97,84.531,40.97z M84.531,113.093c-15.749,0-28.563-12.812-28.563-28.561
    c0-15.75,12.813-28.563,28.563-28.563s28.563,12.813,28.563,28.563C113.094,100.281,100.28,113.093,84.531,113.093z"/>
  <path d="M129.921,28.251c-2.89,0-5.729,1.17-7.77,3.22c-2.051,2.04-3.23,4.88-3.23,7.78c0,2.891,1.18,5.73,3.23,7.78
    c2.04,2.04,4.88,3.22,7.77,3.22c2.9,0,5.73-1.18,7.78-3.22c2.05-2.05,3.22-4.89,3.22-7.78c0-2.9-1.17-5.74-3.22-7.78
    C135.661,29.421,132.821,28.251,129.921,28.251z"/>
</symbol><symbol id="icon-login" viewBox="0 -10 490.66667 490"><path d="m325.332031 251h-309.332031c-8.832031 0-16-7.167969-16-16s7.167969-16 16-16h309.332031c8.832031 0 16 7.167969 16 16s-7.167969 16-16 16zm0 0"/><path d="m240 336.332031c-4.097656 0-8.191406-1.554687-11.308594-4.691406-6.25-6.25-6.25-16.382813 0-22.636719l74.027344-74.023437-74.027344-74.027344c-6.25-6.25-6.25-16.386719 0-22.636719 6.253906-6.25 16.386719-6.25 22.636719 0l85.332031 85.335938c6.25 6.25 6.25 16.382812 0 22.632812l-85.332031 85.332032c-3.136719 3.160156-7.230469 4.714843-11.328125 4.714843zm0 0"/><path d="m256 469.667969c-97.089844 0-182.804688-58.410157-218.410156-148.824219-3.242188-8.191406.808594-17.492188 9.023437-20.734375 8.191407-3.199219 17.515625.789063 20.757813 9.046875 30.742187 78.058594 104.789062 128.511719 188.628906 128.511719 111.742188 0 202.667969-90.925781 202.667969-202.667969s-90.925781-202.667969-202.667969-202.667969c-83.839844 0-157.886719 50.453125-188.628906 128.511719-3.265625 8.257812-12.566406 12.246094-20.757813 9.046875-8.214843-3.242187-12.265625-12.542969-9.023437-20.734375 35.605468-90.414062 121.320312-148.824219 218.410156-148.824219 129.386719 0 234.667969 105.28125 234.667969 234.667969s-105.28125 234.667969-234.667969 234.667969zm0 0"/></symbol><symbol id="icon-play" viewBox="0 0 512 512"><g><g><path d="M431.36,80.64A248,248,0,1,0,80.64,431.36,248,248,0,1,0,431.36,80.64ZM420.05,420.05A232,232,0,0,1,91.95,91.95a232,232,0,0,1,328.1,328.1Z"/><path d="M176,464.7a7.982,7.982,0,0,1-2.963-.571A224.077,224.077,0,0,1,32,256a8,8,0,0,1,16,0A208.073,208.073,0,0,0,178.965,449.271,8,8,0,0,1,176,464.7Z"/><path d="M216.009,476.305a8.072,8.072,0,0,1-1.482-.138c-5.557-1.041-11.141-2.309-16.595-3.77a8,8,0,1,1,4.136-15.455c5.063,1.355,10.245,2.533,15.405,3.5a8,8,0,0,1-1.464,15.865Z"/></g><path d="M208.538,352a8,8,0,0,1-8-8V168a8,8,0,0,1,12.131-6.851l145.924,88a8,8,0,0,1,0,13.7l-145.924,88A8,8,0,0,1,208.538,352Zm8-169.833V329.833L338.971,256Z"/></g></symbol><symbol id="icon-quote" viewBox="0 0 59.432266 43.223999"><metadata id="metadata8"><rdf:RDF><cc:Work rdf:about=""><dc:format>image/svg+xml</dc:format><dc:type rdf:resource="http://purl.org/dc/dcmitype/StillImage"/></cc:Work></rdf:RDF></metadata><g transform="matrix(1.3333333,0,0,-1.3333333,0,43.224)" id="g10"><g id="g12"><g clip-path="url(#clipPath18)" id="g14"><g transform="translate(10.1049,32.4179)" id="g20"><path id="path22" style="fill:#d9af7e;fill-opacity:1;fill-rule:nonzero;stroke:none" d="m 0,0 c 2.869,0 5.32,-1.118 7.354,-3.352 0.967,-1.035 1.734,-2.294 2.301,-3.777 0.568,-1.484 0.852,-2.976 0.852,-4.477 0,-3.169 -1.035,-6.378 -3.103,-9.63 -2.067,-3.252 -4.836,-6.012 -8.304,-8.28 -2.935,-1.934 -5.237,-2.902 -6.904,-2.902 -0.667,0 -1.217,0.2 -1.65,0.601 -0.434,0.4 -0.65,0.934 -0.65,1.6 0,1.001 0.632,1.835 1.9,2.502 3.034,1.569 5.253,3.119 6.654,4.653 1.333,1.433 2,2.484 2,3.151 0,0.634 -0.5,1.018 -1.5,1.151 l -0.65,0.1 -0.75,0.05 c -2.169,0.334 -3.928,1.342 -5.279,3.026 -1.35,1.684 -2.026,3.728 -2.026,6.129 0,2.467 0.834,4.601 2.501,6.403 C -5.352,-1.018 -2.935,0 0,0"/></g><g transform="translate(34.0678,32.4179)" id="g24"><path id="path26" style="fill:#d9af7e;fill-opacity:1;fill-rule:nonzero;stroke:none" d="m 0,0 c 2.869,0 5.32,-1.118 7.354,-3.352 0.966,-1.035 1.734,-2.294 2.301,-3.777 0.569,-1.484 0.852,-2.976 0.852,-4.477 0,-3.169 -1.035,-6.378 -3.103,-9.63 -2.067,-3.252 -4.835,-6.012 -8.304,-8.28 -2.935,-1.934 -5.237,-2.902 -6.905,-2.902 -0.667,0 -1.216,0.2 -1.65,0.601 -0.433,0.4 -0.649,0.934 -0.649,1.6 0,1.001 0.632,1.835 1.9,2.502 3.034,1.569 5.254,3.119 6.653,4.653 1.334,1.433 2.001,2.484 2.001,3.151 0,0.634 -0.5,1.018 -1.501,1.151 l -0.649,0.1 -0.75,0.05 c -2.168,0.334 -3.929,1.342 -5.279,3.026 -1.351,1.684 -2.026,3.728 -2.026,6.129 0,2.467 0.833,4.601 2.501,6.403 C -5.352,-1.018 -2.935,0 0,0"/></g></g></g></g></symbol><symbol id="icon-right-2" viewBox="0 0 129 129">
  <g>
    <path d="m40.4,121.3c-0.8,0.8-1.8,1.2-2.9,1.2s-2.1-0.4-2.9-1.2c-1.6-1.6-1.6-4.2 0-5.8l51-51-51-51c-1.6-1.6-1.6-4.2 0-5.8 1.6-1.6 4.2-1.6 5.8,0l53.9,53.9c1.6,1.6 1.6,4.2 0,5.8l-53.9,53.9z"/>
  </g>
</symbol><symbol id="icon-right" viewBox="0 0 31.49 31.49">
  <path d="M21.205,5.007c-0.429-0.444-1.143-0.444-1.587,0c-0.429,0.429-0.429,1.143,0,1.571l8.047,8.047H1.111
  	C0.492,14.626,0,15.118,0,15.737c0,0.619,0.492,1.127,1.111,1.127h26.554l-8.047,8.032c-0.429,0.444-0.429,1.159,0,1.587
  	c0.444,0.444,1.159,0.444,1.587,0l9.952-9.952c0.444-0.429,0.444-1.143,0-1.571L21.205,5.007z"/>
</symbol><symbol id="icon-speaker" viewBox="0 0 512 512"><path d="m493.886719 77.164062c-13.65625-51.203124-32.792969-77.164062-56.886719-77.164062-9.792969 0-18.765625 4.289062-26.886719 12.816406-44.890625 38.25-82.9375 63.664063-119.722656 79.96875-41.304687 18.304688-87.492187 26.824219-141.171875 26.050782-.789062-.015626-68.21875.164062-68.21875.164062-44.664062 0-81 36.347656-81 81.023438v81.027343c0 44.675781 36.335938 81.023438 81 81.023438 0 0 3.105469-.003907 8-.011719v100.9375c0 27.019531 21.980469 49 49 49h1.449219c21.242187 0 39.480469-13.121094 46.464843-33.445312l37.960938-110.929688c23.652344 4.308594 45.722656 11.019531 66.519531 20.234375 36.476563 16.167969 74.222657 41.328125 118.777344 79.179687.792969.675782 1.640625 1.242188 2.519531 1.722657 7.699219 7.472656 16.144532 11.238281 25.308594 11.238281 24.09375 0 43.230469-25.960938 56.886719-77.164062 11.679687-43.804688 18.113281-101.632813 18.113281-162.835938s-6.433594-119.03125-18.113281-162.835938zm-101.886719 162.835938c0-16.574219.484375-32.859375 1.429688-48.632812 18.160156 8.84375 30.570312 27.59375 30.570312 48.523437 0 20.941406-12.304688 39.707031-30.582031 48.554687-.9375-15.714843-1.417969-31.9375-1.417969-48.445312zm-362 41.050781v-81.027343c0-28.128907 22.878906-51.015626 51-51.015626h53v183.058594h-53c-28.121094 0-51-22.886718-51-51.015625zm127.539062 187.769531c-2.796874 8.128907-9.726562 13.179688-18.089843 13.179688h-1.449219c-10.476562 0-19-8.523438-19-19v-100.996094c16.488281-.042968 32.183594-.097656 32.578125-.167968 14.542969-.132813 28.511719.441406 41.992187 1.683593zm145.007813-108.386718c-41.289063-18.300782-86.734375-27.683594-138.546875-28.554688v-183.066406c51.742188-.878906 97.203125-10.277344 138.546875-28.601562 25.265625-11.195313 50.886719-26.234376 78.410156-46.125-.28125 1.019531-.566406 2.035156-.84375 3.074218-11.679687 43.804688-18.113281 101.636719-18.113281 162.839844s6.433594 119.035156 18.113281 162.835938c.351563 1.320312.710938 2.613281 1.070313 3.902343-27.632813-19.996093-53.316406-35.085937-78.636719-46.304687zm162.351563 34.671875c-12.152344 45.578125-25.097657 54.894531-27.898438 54.894531s-15.746094-9.316406-27.898438-54.894531c-5.820312-21.816407-10.253906-47.457031-13.152343-75.425781 34.113281-11.117188 58.050781-43.335938 58.050781-79.789063 0-20.09375-7.277344-39.566406-20.496094-54.824219-10.09375-11.65625-23.117187-20.242187-37.53125-24.953125 2.894532-27.890625 7.324219-53.457031 13.128906-75.222656 12.152344-45.574219 25.097657-54.890625 27.898438-54.890625s15.746094 9.316406 27.898438 54.894531c11.027343 41.351563 17.101562 96.4375 17.101562 155.105469s-6.074219 113.753906-17.101562 155.105469zm0 0"/></symbol><symbol id="icon-star" viewBox="0 -10 511.98685 511"><path d="m114.59375 491.140625c-5.609375 0-11.179688-1.75-15.933594-5.1875-8.855468-6.417969-12.992187-17.449219-10.582031-28.09375l32.9375-145.089844-111.703125-97.960937c-8.210938-7.167969-11.347656-18.519532-7.976562-28.90625 3.371093-10.367188 12.542968-17.707032 23.402343-18.710938l147.796875-13.417968 58.433594-136.746094c4.308594-10.046875 14.121094-16.535156 25.023438-16.535156 10.902343 0 20.714843 6.488281 25.023437 16.511718l58.433594 136.769532 147.773437 13.417968c10.882813.980469 20.054688 8.34375 23.425782 18.710938 3.371093 10.367187.253906 21.738281-7.957032 28.90625l-111.703125 97.941406 32.9375 145.085938c2.414063 10.667968-1.726562 21.699218-10.578125 28.097656-8.832031 6.398437-20.609375 6.890625-29.910156 1.300781l-127.445312-76.160156-127.445313 76.203125c-4.308594 2.558594-9.109375 3.863281-13.953125 3.863281zm141.398438-112.875c4.84375 0 9.640624 1.300781 13.953124 3.859375l120.277344 71.9375-31.085937-136.941406c-2.21875-9.746094 1.089843-19.921875 8.621093-26.515625l105.472657-92.5-139.542969-12.671875c-10.046875-.917969-18.6875-7.234375-22.613281-16.492188l-55.082031-129.046875-55.148438 129.066407c-3.882812 9.195312-12.523438 15.511718-22.546875 16.429687l-139.5625 12.671875 105.46875 92.5c7.554687 6.613281 10.859375 16.769531 8.621094 26.539062l-31.0625 136.9375 120.277343-71.914062c4.308594-2.558594 9.109376-3.859375 13.953126-3.859375zm-84.585938-221.847656s0 .023437-.023438.042969zm169.128906-.0625.023438.042969c0-.023438 0-.023438-.023438-.042969zm0 0"/></symbol><symbol id="icon-twitter" viewBox="0 0 512 512">
  <path d="M512,97.248c-19.04,8.352-39.328,13.888-60.48,16.576c21.76-12.992,38.368-33.408,46.176-58.016
    c-20.288,12.096-42.688,20.64-66.56,25.408C411.872,60.704,384.416,48,354.464,48c-58.112,0-104.896,47.168-104.896,104.992
    c0,8.32,0.704,16.32,2.432,23.936c-87.264-4.256-164.48-46.08-216.352-109.792c-9.056,15.712-14.368,33.696-14.368,53.056
    c0,36.352,18.72,68.576,46.624,87.232c-16.864-0.32-33.408-5.216-47.424-12.928c0,0.32,0,0.736,0,1.152
    c0,51.008,36.384,93.376,84.096,103.136c-8.544,2.336-17.856,3.456-27.52,3.456c-6.72,0-13.504-0.384-19.872-1.792
    c13.6,41.568,52.192,72.128,98.08,73.12c-35.712,27.936-81.056,44.768-130.144,44.768c-8.608,0-16.864-0.384-25.12-1.44
    C46.496,446.88,101.6,464,161.024,464c193.152,0,298.752-160,298.752-298.688c0-4.64-0.16-9.12-0.384-13.568
    C480.224,136.96,497.728,118.496,512,97.248z"/>
</symbol><symbol id="icon-youtube" viewBox="0 0 410 410">
  <g transform="translate(-50,-50)">
    <path d="M490.24,113.92c-13.888-24.704-28.96-29.248-59.648-30.976C399.936,80.864,322.848,80,256.064,80
      c-66.912,0-144.032,0.864-174.656,2.912c-30.624,1.76-45.728,6.272-59.744,31.008C7.36,138.592,0,181.088,0,255.904
      C0,255.968,0,256,0,256c0,0.064,0,0.096,0,0.096v0.064c0,74.496,7.36,117.312,21.664,141.728
      c14.016,24.704,29.088,29.184,59.712,31.264C112.032,430.944,189.152,432,256.064,432c66.784,0,143.872-1.056,174.56-2.816
      c30.688-2.08,45.76-6.56,59.648-31.264C504.704,373.504,512,330.688,512,256.192c0,0,0-0.096,0-0.16c0,0,0-0.064,0-0.096
      C512,181.088,504.704,138.592,490.24,113.92z M192,352V160l160,96L192,352z"/>
  </g>
</symbol></svg>