<svg xmlns="http://www.w3.org/2000/svg" xmlns:xlink="http://www.w3.org/1999/xlink"><symbol id="icon-1" viewBox="0 0 104 104">
<path d="M43.2555 46.4026V35.0864C43.2555 33.3888 44.658 32 46.3723 32H55.6276C57.3418 32 58.7443 33.3894 58.7443 35.0864V46.4026M43.2555 46.4026C44.4865 46.4026 45.4843 47.3908 45.4843 48.6098C45.4843 49.8287 44.4865 50.8169 43.2555 50.8169C42.0245 50.8169 41.0267 49.8287 41.0267 48.6098C41.0267 47.3908 42.0245 46.4026 43.2555 46.4026ZM58.7443 46.4026C59.9753 46.4026 60.9732 47.3908 60.9732 48.6098C60.9732 49.8287 59.9753 50.8169 58.7443 50.8169C57.5134 50.8169 56.5155 49.8287 56.5155 48.6098C56.5155 47.3955 57.5057 46.4106 58.73 46.4028L58.7443 46.4026ZM64.4112 39.2941L68 71H34L37.5888 39.2941H64.4112Z" stroke="black" stroke-width="2" stroke-linecap="round" stroke-linejoin="round"/>
</symbol><symbol id="icon-2" viewBox="0 0 104 104">
<path d="M40.7254 35H62.6V53.4514M54.1979 55.6671H22M54.1979 48.2938H27.9779M54.1979 40.9207H33.7722M62.6 40.1732H72.0159C74.289 40.3681 75.8969 41.5248 77.0114 43.3948L80.9971 52.7387V61.9975C81.0467 63.56 80.4537 64.2835 79.2956 64.2695H72.7229M72.7229 64.2695C72.7229 66.882 70.6475 69 68.0875 69C65.5272 69 63.4518 66.882 63.4518 64.2695M72.7229 64.2695C72.7229 62.9444 72.189 61.7469 71.3287 60.888C70.4929 60.0533 69.3492 59.5387 68.0875 59.5387C65.5272 59.5387 63.4518 61.6568 63.4518 64.2695M63.4518 64.2695H44.7649M44.7649 64.2695C44.7649 66.882 42.6893 69 40.1292 69C37.5692 69 35.4936 66.882 35.4936 64.2695M44.7649 64.2695C44.7649 61.6568 42.6893 59.5387 40.1292 59.5387C37.5692 59.5387 35.4936 61.6568 35.4936 64.2695M35.4936 64.2695H26.0947" stroke="black" stroke-width="2" stroke-linecap="round" stroke-linejoin="round"/>
</symbol><symbol id="icon-3" viewBox="0 0 104 104">
<path d="M42.5327 38.1552H61.4673M42.5327 43.4933H52.9222M42.5327 48.8313H57.3101M42.5327 54.169H61.4673M42.5327 59.507H52.9222M42.5327 64.8448H57.3101M47.391 32H39.9169C38.3125 32 37 33.3395 37 34.977V68.023C37 69.6605 38.3125 71 39.9169 71H64.0831C65.6875 71 67 69.6605 67 68.023V34.977C67 33.3395 65.6875 32 64.0831 32H47.391Z" stroke="black" stroke-width="2" stroke-linecap="round" stroke-linejoin="round"/>
</symbol><symbol id="icon-4" viewBox="0 0 104 104">
<path fill-rule="evenodd" clip-rule="evenodd" d="M39 34.9183C39 33.3132 40.3246 32 41.9438 32H61.0562C62.6754 32 64 33.3132 64 34.9183V68.0817C64 69.6868 62.6754 71 61.0562 71H41.9438C40.3246 71 39 69.6868 39 68.0817V34.9183ZM51.4972 61.6571C50.1459 61.6571 49.0503 62.7432 49.0503 64.0829C49.0503 65.4226 50.1459 66.5087 51.4972 66.5087C52.8486 66.5087 53.9441 65.4226 53.9441 64.0829C53.9441 62.7432 52.8486 61.6571 51.4972 61.6571Z" stroke="black" stroke-width="2"/>
</symbol><symbol id="icon-plus" viewBox="0 0 52 49">
<path d="M38.6358 36.1197L51 47.2025M38.6358 36.1197C46.8294 27.69 46.3568 14.4817 37.5793 6.61466C28.7997 -1.25033 15.0432 -0.798551 6.84962 7.63116C-1.3461 16.0588 -0.871297 29.2671 7.90617 37.1362C16.6836 45.0012 30.4423 44.5473 38.6358 36.1197Z" stroke="white" stroke-width="2" stroke-linecap="round" stroke-linejoin="round"/>
<line x1="23" y1="11" x2="23" y2="34" stroke="white" stroke-width="2" stroke-linecap="round"/>
<line x1="11" y1="21" x2="34" y2="21" stroke="white" stroke-width="2" stroke-linecap="round"/>
</symbol></svg>