<svg xmlns="http://www.w3.org/2000/svg" xmlns:xlink="http://www.w3.org/1999/xlink"><symbol id="icon-bag" viewBox="0 0 105 104">
<circle cx="52.5126" cy="51.7875" r="51.7875" fill="#96CDC8"/>
<path d="M44.1514 46.384V33.511C44.1514 31.5799 45.7313 30 47.6624 30H58.0886C60.0197 30 61.5996 31.5805 61.5996 33.511V46.384M44.1514 46.384C45.5381 46.384 46.6622 47.5081 46.6622 48.8948C46.6622 50.2814 45.5381 51.4055 44.1514 51.4055C42.7647 51.4055 41.6406 50.2814 41.6406 48.8948C41.6406 47.5081 42.7647 46.384 44.1514 46.384ZM61.5996 46.384C62.9863 46.384 64.1104 47.5081 64.1104 48.8948C64.1104 50.2814 62.9863 51.4055 61.5996 51.4055C60.2129 51.4055 59.0888 50.2814 59.0888 48.8948C59.0888 47.5135 60.2043 46.393 61.5835 46.3842L61.5996 46.384ZM67.9833 38.2975L72.0261 74.3652H33.7251L37.7679 38.2975H67.9833Z" stroke="white" stroke-width="2" stroke-linecap="round" stroke-linejoin="round"/>
</symbol><symbol id="icon-car" viewBox="0 0 104 104">
<circle cx="51.9377" cy="52.2123" r="51.7875" fill="#96CDC8"/>
<path d="M38.577 33H63.6073V53.6894M53.9931 56.1738H17.1501M53.9931 47.9062H23.9904M53.9931 39.6388H30.6206M63.6073 38.8006H74.3817C76.9827 39.0192 78.8226 40.3162 80.0979 42.413L84.6586 52.8902V63.2721C84.7153 65.0241 84.0368 65.8353 82.7116 65.8196H75.1907M75.1907 65.8196C75.1907 68.749 72.8159 71.1239 69.8865 71.1239C66.9569 71.1239 64.5821 68.749 64.5821 65.8196M75.1907 65.8196C75.1907 64.3338 74.5797 62.991 73.5954 62.0279C72.6389 61.092 71.3303 60.515 69.8865 60.515C66.9569 60.515 64.5821 62.8901 64.5821 65.8196M64.5821 65.8196H43.1992M43.1992 65.8196C43.1992 68.749 40.8242 71.1239 37.8948 71.1239C34.9654 71.1239 32.5904 68.749 32.5904 65.8196M43.1992 65.8196C43.1992 62.8901 40.8242 60.515 37.8948 60.515C34.9654 60.515 32.5904 62.8901 32.5904 65.8196M32.5904 65.8196H21.8355" stroke="white" stroke-width="2" stroke-linecap="round" stroke-linejoin="round"/>
</symbol><symbol id="icon-circle" viewBox="0 0 100 101">
<circle cx="50" cy="50.4248" r="50" fill="#FFD8B1"/>
<circle cx="31.3782" cy="40.4925" r="14.9305" stroke="white" stroke-width="2"/>
<circle cx="69.032" cy="40.4925" r="14.9305" stroke="white" stroke-width="2"/>
<circle cx="49.7225" cy="72.3533" r="14.9305" stroke="white" stroke-width="2"/>
</symbol><symbol id="icon-drop" viewBox="0 0 100 100">
<circle cx="50" cy="50" r="50" fill="#FFD8B1"/>
<path d="M69.1339 57.493C69.1339 63.9153 63.8824 69.1245 57.4066 69.1245M36.9406 39.459C36.9406 42.7032 34.2862 45.3356 31.0127 45.3356M29.5582 27.2784C30.2405 26.4825 30.8678 25.7479 31.3772 25.1025C34.1893 28.663 40.5471 34.8929 40.5471 39.8541C40.5471 44.8756 36.4406 48.9482 31.3772 48.9482C26.3127 48.9482 22.2062 44.8756 22.2062 39.8541C22.2062 37.589 23.5345 35.0586 25.2402 32.6394M54.5268 33.3937C55.8773 31.8156 57.1192 30.3639 58.1263 29.0847C63.6897 36.1338 76.2733 48.4592 76.2733 58.2763C76.2733 68.2149 68.1478 76.2732 58.1263 76.2732C48.1047 76.2732 39.9793 68.2149 39.9793 58.2763C39.9793 53.5213 42.9351 48.1789 46.6093 43.1319M27.0324 30.2793C27.2403 30.0186 27.3677 29.868 27.6457 29.532L27.0324 30.2793ZM49.134 39.831C49.8291 38.9469 50.0394 38.7025 50.7427 37.852L49.134 39.831Z" stroke="white" stroke-width="2" stroke-linecap="round" stroke-linejoin="round"/>
</symbol><symbol id="icon-ellipse" viewBox="0 0 30 30">
<circle cx="15" cy="15" r="15" fill="#FFE1ED"/>
</symbol><symbol id="icon-gift" viewBox="0 0 100 101">
<circle cx="50" cy="50.4248" r="50" fill="#FFD8B1"/>
<path d="M27.9549 52.9858V68.9831C27.9549 70.572 29.2307 71.8705 30.7899 71.8705H67.8422C69.4022 71.8705 70.6771 70.572 70.6771 68.9831V40.107C70.6771 38.5182 69.4022 37.2197 67.8422 37.2197H30.7899C29.2299 37.2197 27.9549 38.5182 27.9549 40.107V45.6205V52.9858ZM27.9549 52.9858L64.7448 52.871M16.4132 35.0424C20.9823 20.5517 33.3759 33.8081 49.316 37.2197C49.316 37.2197 71.9428 35.0638 72.4113 23.5238M48.9645 37.2188V71.8705M48.9645 37.2188L41.7825 32.6415C27.6976 23.6651 42.0516 9.73972 47.3288 30.7169L48.9645 37.2188ZM48.9645 37.2188C55.0205 8.17142 72.3978 31.8021 48.9645 37.2188Z" stroke="white" stroke-width="2" stroke-linecap="round" stroke-linejoin="round"/>
</symbol><symbol id="icon-line-1" viewBox="0 0 143 22">
<path d="M141.793 19L133.091 10.0072L128 4.72863C126.035 2.69105 122.772 2.6897 120.805 4.72565L115.703 10.0072L110.595 15.2863C108.63 17.3172 105.374 17.3172 103.409 15.2863L98.3008 10.0072L93.1956 4.72255C91.23 2.68778 87.9691 2.68778 86.0034 4.72254L80.8983 10.0072L75.7903 15.2863C73.8252 17.3172 70.5688 17.3172 68.6037 15.2863L63.4958 10.0072L58.3936 4.72564C56.4268 2.6897 53.1636 2.69105 51.1985 4.72863L46.1077 10.0072L40.9998 15.2863C39.0347 17.3172 35.7783 17.3172 33.8132 15.2863L28.7052 10.0072L23.6001 4.72255C21.6344 2.68778 18.3735 2.68779 16.4079 4.72256L11.3027 10.0072L3 18.5933" stroke="#FFE1ED" stroke-width="5" stroke-linecap="round" stroke-linejoin="round"/>
</symbol><symbol id="icon-line-3" viewBox="0 0 195 76">
<path d="M190.86 3L182.165 12.0072L177.065 17.2823C175.1 19.315 171.841 19.315 169.876 17.2823L164.776 12.0072L159.678 6.7266C157.712 4.69008 154.449 4.69008 152.483 6.7266L147.386 12.0072L142.285 17.2823C140.32 19.315 137.062 19.315 135.096 17.2823L129.996 12.0072L124.913 6.73267C122.948 4.69335 119.682 4.69199 117.715 6.72969L112.621 12.0072L107.52 17.2823C105.555 19.315 102.297 19.315 100.331 17.2823L95.231 12.0072L90.1335 6.72659C88.1676 4.69007 84.9046 4.69007 82.9387 6.7266L77.8412 12.0072L72.7409 17.2823C70.7756 19.315 67.5171 19.315 65.5518 17.2823L60.4515 12.0072L55.357 6.72969C53.3899 4.69199 50.1247 4.69335 48.1594 6.73268L43.0762 12.0072L37.9759 17.2823C36.0105 19.315 32.7521 19.315 30.7867 17.2823L25.6864 12.0072L20.5889 6.7266C18.623 4.69007 15.3601 4.69007 13.3942 6.7266L8.29667 12.0072L0 20.5933" stroke="#FFD8B1" stroke-width="5" stroke-linecap="round" stroke-linejoin="round"/>
<path d="M191.86 30L183.165 39.0072L178.065 44.2823C176.1 46.315 172.841 46.315 170.876 44.2823L165.776 39.0072L160.678 33.7266C158.712 31.6901 155.449 31.6901 153.483 33.7266L148.386 39.0072L143.285 44.2823C141.32 46.315 138.062 46.315 136.096 44.2823L130.996 39.0072L125.913 33.7327C123.948 31.6933 120.682 31.692 118.715 33.7297L113.621 39.0072L108.52 44.2823C106.555 46.315 103.297 46.315 101.331 44.2823L96.231 39.0072L91.1335 33.7266C89.1676 31.6901 85.9046 31.6901 83.9387 33.7266L78.8412 39.0072L73.7409 44.2823C71.7756 46.315 68.5171 46.315 66.5518 44.2823L61.4515 39.0072L56.357 33.7297C54.3899 31.692 51.1247 31.6933 49.1594 33.7327L44.0762 39.0072L38.9759 44.2823C37.0105 46.315 33.7521 46.315 31.7867 44.2823L26.6864 39.0072L21.5889 33.7266C19.623 31.6901 16.3601 31.6901 14.3942 33.7266L9.29667 39.0072L1 47.5933" stroke="#FFD8B1" stroke-width="5" stroke-linecap="round" stroke-linejoin="round"/>
<path d="M191.86 55L183.165 64.0072L178.065 69.2823C176.1 71.315 172.841 71.315 170.876 69.2823L165.776 64.0072L160.678 58.7266C158.712 56.6901 155.449 56.6901 153.483 58.7266L148.386 64.0072L143.285 69.2823C141.32 71.315 138.062 71.315 136.096 69.2823L130.996 64.0072L125.913 58.7327C123.948 56.6933 120.682 56.692 118.715 58.7297L113.621 64.0072L108.52 69.2823C106.555 71.315 103.297 71.315 101.331 69.2823L96.231 64.0072L91.1335 58.7266C89.1676 56.6901 85.9046 56.6901 83.9387 58.7266L78.8412 64.0072L73.7409 69.2823C71.7756 71.315 68.5171 71.315 66.5518 69.2823L61.4515 64.0072L56.357 58.7297C54.3899 56.692 51.1247 56.6933 49.1594 58.7327L44.0762 64.0072L38.9759 69.2823C37.0105 71.315 33.7521 71.315 31.7867 69.2823L26.6864 64.0072L21.5889 58.7266C19.623 56.6901 16.3601 56.6901 14.3942 58.7266L9.29667 64.0072L1 72.5933" stroke="#FFD8B1" stroke-width="5" stroke-linecap="round" stroke-linejoin="round"/>
</symbol><symbol id="icon-list" viewBox="0 0 104 104">
<circle cx="51.7875" cy="51.7875" r="51.7875" fill="#96CDC8"/>
<path d="M40.2703 36.9444H61.7297M40.2703 42.9668H52.0452M40.2703 48.9891H57.0182M40.2703 55.0112H61.7297M40.2703 61.0335H52.0452M40.2703 67.0556H57.0182M45.7765 30H37.3058C35.4875 30 34 31.5113 34 33.3587V70.6413C34 72.4887 35.4875 74 37.3058 74H64.6942C66.5125 74 68 72.4887 68 70.6413V33.3587C68 31.5113 66.5125 30 64.6942 30H45.7765Z" stroke="white" stroke-width="2" stroke-linecap="round" stroke-linejoin="round"/>
</symbol><symbol id="icon-next" viewBox="0 0 45 27">
<path d="M1 13.498H43.3077M43.3077 13.498L30.02 1M43.3077 13.498L30.02 26" stroke="#96CDC8" stroke-width="2" stroke-linecap="round" stroke-linejoin="round"/>
</symbol><symbol id="icon-pen" viewBox="0 0 100 100">
<circle cx="50" cy="50" r="50" fill="#FFD8B1"/>
<path d="M64.0622 60.9749V74.7314C64.0622 77.3967 61.8972 79.5798 59.2532 79.5798H30.8762C28.2321 79.5798 26.0681 77.3976 26.0681 74.7314V46.1163C26.0681 43.4491 28.2321 41.2669 30.8762 41.2669H43.0417M71.477 25.931L63.3278 40.3374M61.2278 44.0479L58.8831 48.1953M56.6913 52.065L52.852 58.8526M56.6827 61.055L43.6518 68.9168M43.7331 53.6069L43.6528 68.9177M43.7331 53.6069L56.6818 61.0559L75.3078 28.1353L62.3581 20.6853M43.7331 53.6069L58.3591 27.7545" stroke="white" stroke-width="2" stroke-linecap="round" stroke-linejoin="round"/>
</symbol><symbol id="icon-phone" viewBox="0 0 105 104">
<circle cx="52.3626" cy="51.7875" r="51.7875" fill="#96CDC8"/>
<path fill-rule="evenodd" clip-rule="evenodd" d="M38.5751 32.3198C38.5751 30.4938 40.0689 29 41.8949 29H63.449C65.275 29 66.7688 30.4938 66.7688 32.3198V70.0454C66.7688 71.8714 65.275 73.3652 63.449 73.3652H41.8949C40.0689 73.3652 38.5751 71.8714 38.5751 70.0454V32.3198ZM52.6688 62.737C51.1448 62.737 49.9094 63.9725 49.9094 65.4965C49.9094 67.0205 51.1448 68.256 52.6688 68.256C54.1928 68.256 55.4283 67.0205 55.4283 65.4965C55.4283 63.9725 54.1928 62.737 52.6688 62.737Z" stroke="white" stroke-width="2"/>
</symbol><symbol id="icon-prev" viewBox="0 0 45 27">
<path d="M43.3076 13.502L0.999925 13.502M0.999925 13.502L14.2877 26M0.999925 13.502L14.2877 1" stroke="#96CDC8" stroke-width="2" stroke-linecap="round" stroke-linejoin="round"/>
</symbol><symbol id="icon-rectangle" viewBox="0 0 88 67">
<path d="M0 0L41.2152 0L88 67H46.7848L0 0Z" fill="#96CDC8"/>
</symbol></svg>