<svg width="56" height="62" fill="none" xmlns="http://www.w3.org/2000/svg"><path d="M14.549 49.693h2.2c.766 0 1.394-.699 1.394-1.554v-6.423c0-.855-.628-1.555-1.393-1.555h-2.201V6.551C14.549 3.496 12.309 1 9.57 1 6.834 1 4.594 3.498 4.594 6.55v33.611m9.955 9.532h-4.463m4.463 0v5.757c0 3.052-2.24 5.55-4.978 5.55-2.737 0-4.977-2.498-4.977-5.55v-5.757m9.955 0H4.594M41.33 37.946h4.462m-4.462 0h-2.201c-.767 0-1.394-.698-1.394-1.555v-6.423c0-.855.627-1.553 1.394-1.553h14.356c.765 0 1.393.698 1.393 1.553v6.423c0 .857-.628 1.555-1.393 1.555h-2.2V55.45c0 3.052-2.24 5.55-4.979 5.55-2.736 0-4.976-2.498-4.976-5.55V37.946zM22.963 9.143h4.46m-4.46 0h-2.201c-.768 0-1.394.698-1.394 1.553v6.423c0 .855.626 1.553 1.394 1.553h2.2m0-9.53V6.55c0-3.052 2.24-5.55 4.977-5.55 2.736 0 4.976 2.498 4.976 5.55v2.593h2.201c.767 0 1.393.698 1.393 1.553v6.423c0 .855-.626 1.553-1.393 1.553h-2.201m-28.32 31.02H2.392C1.628 49.693 1 48.995 1 48.14v-6.423c0-.855.628-1.555 1.393-1.555h2.201m0 0h4.882m23.439-21.489V55.45c0 3.052-2.24 5.55-4.976 5.55-2.737 0-4.976-2.498-4.976-5.55V18.672m9.952 0h-9.952M46.305 1c2.738 0 4.978 2.498 4.978 5.55v21.864H41.33V6.55c0-3.052 2.24-5.55 4.976-5.55z" stroke="url(#paint0_linear)" stroke-width="2" stroke-linecap="round" stroke-linejoin="round"/><defs><linearGradient id="paint0_linear" x1="27.939" y1="1" x2="27.939" y2="61" gradientUnits="userSpaceOnUse"><stop stop-color="#FFABAB"/><stop offset="1" stop-color="#2A1CC9"/></linearGradient></defs></svg>