<svg width="37" height="65" fill="none" xmlns="http://www.w3.org/2000/svg"><path d="M6.548 29.6l23.056 7.93M1 15.929v42.909C1 61.677 3.289 64 6.086 64h23.978c2.797 0 5.086-2.324 5.086-5.163V12.605c0-2.84-2.29-5.164-5.086-5.164h-3.307a1.244 1.244 0 01-1.053-1.219V3.04c0-1.12-.904-2.04-2.008-2.04H12.454c-1.104 0-2.009.918-2.009 2.04v3.168c0 .626-.458 1.146-1.052 1.233H6.086C3.289 7.441 1 9.765 1 12.605v3.323zm28.604 7.503L6.548 15.5v39.328c0 1.641 1.322 2.984 2.939 2.984h17.178c1.616 0 2.939-1.343 2.939-2.984V23.43zM6.548 43.261l23.056 7.93-23.056-7.93z" stroke="url(#paint0_linear)" stroke-width="2" stroke-linecap="round" stroke-linejoin="round"/><defs><linearGradient id="paint0_linear" x1="18.075" y1="1" x2="18.075" y2="64" gradientUnits="userSpaceOnUse"><stop stop-color="#FFABAB"/><stop offset="1" stop-color="#2A1CC9"/></linearGradient></defs></svg>