<svg width="37" height="69" fill="none" xmlns="http://www.w3.org/2000/svg"><path d="M35.047 18.047c0 9.417-7.62 17.05-17.023 17.05C8.622 35.097 1 27.464 1 18.047 1 8.63 8.622 1 18.024 1c3.39 0 6.547.991 9.2 2.7m-9.2 53.704C18.037 62.246 16.725 68 26.508 68m-.845-30.344V53.97c0 1.887-1.388 3.434-3.085 3.434h-9.11c-1.693 0-3.082-1.545-3.082-3.434V37.656M27.224 9.279L9.902 26.626M6.4 15.543l13.982 14M9.451 9.28l17.32 17.347M15.278 5.864l14.995 15.014" stroke="url(#paint0_linear)" stroke-width="2" stroke-linecap="round" stroke-linejoin="round"/><defs><linearGradient id="paint0_linear" x1="18.024" y1="1" x2="18.024" y2="68" gradientUnits="userSpaceOnUse"><stop stop-color="#FFABAB"/><stop offset="1" stop-color="#2A1CC9"/></linearGradient></defs></svg>