<svg width="60" height="67" fill="none" xmlns="http://www.w3.org/2000/svg"><path d="M1 56.41C4.172 57.483 6.236 66 10.726 66c4.49 0 5-9.59 9.458-9.59S25.183 66 29.64 66c4.989 0 5.848-9.59 10.154-9.59 4.46 0 5 9.59 9.456 9.59 4.46 0 6.286-8.517 9.46-9.59M29.853 44.378c-6.44 0-11.66-5.294-11.66-11.826M29.852 1C16.936 15.903 11.334 25.56 11.915 30.783c-.056.58-.085 1.171-.085 1.769 0 10.095 8.07 18.279 18.023 18.279 9.956 0 18.023-8.184 18.023-18.28 0-.597-.027-1.188-.082-1.768.58-5.223-5.024-14.88-17.94-29.783z" stroke="url(#paint0_linear)" stroke-width="2" stroke-linecap="round" stroke-linejoin="round"/><defs><linearGradient id="paint0_linear" x1="29.855" y1="1" x2="29.855" y2="66" gradientUnits="userSpaceOnUse"><stop stop-color="#FFABAB"/><stop offset="1" stop-color="#2A1CC9"/></linearGradient></defs></svg>