<svg width="67" height="53" fill="none" xmlns="http://www.w3.org/2000/svg"><path clip-rule="evenodd" d="M33.494 40.825c2.869 0 5.197 2.34 5.197 5.229 0 2.889-2.328 5.229-5.197 5.229-2.871 0-5.198-2.34-5.198-5.229 0-2.889 2.327-5.229 5.198-5.229zM7.974 19.464a4.131 4.131 0 01-5.862-.213 4.193 4.193 0 01.21-5.9 45.782 45.782 0 0114.437-9.165A45.386 45.386 0 0133.494 1c5.895 0 11.545 1.13 16.74 3.19a45.74 45.74 0 0114.442 9.174 4.19 4.19 0 01.212 5.9 4.134 4.134 0 01-5.864.213c-7.922-6.642-16.01-10.11-25.53-10.11-9.515 0-17.015 2.875-25.52 10.097zm8.498 9.613a4.144 4.144 0 01-5.88.065 4.201 4.201 0 01-.066-5.916 32.158 32.158 0 0110.521-7.188 31.859 31.859 0 0112.447-2.535c4.458 0 8.72.924 12.604 2.594a32.163 32.163 0 0110.592 7.4 4.176 4.176 0 01-.13 5.881 4.118 4.118 0 01-5.848-.129c-5.356-4.954-10.705-7.38-17.218-7.38-6.484 0-11.32 2.118-17.022 7.207zm7.287 9.728a4.137 4.137 0 01-5.847.523 4.196 4.196 0 01-.52-5.885c3.997-4.788 9.884-7.565 16.102-7.565 6.386 0 12.415 2.948 16.401 7.957a4.181 4.181 0 01-.65 5.851 4.12 4.12 0 01-5.813-.653c-2.85-3.062-5.646-4.789-9.938-4.789-5.453 0-8.794 3.667-9.735 4.561z" stroke="url(#paint0_linear)" stroke-width="2" stroke-linecap="round" stroke-linejoin="round"/><defs><linearGradient id="paint0_linear" x1="33.5" y1="1" x2="33.5" y2="51.283" gradientUnits="userSpaceOnUse"><stop stop-color="#FFABAB"/><stop offset="1" stop-color="#2A1CC9"/></linearGradient></defs></svg>