<svg width="141" height="58" viewBox="0 0 98 40" fill="none" xmlns="http://www.w3.org/2000/svg"><path fill-rule="evenodd" clip-rule="evenodd" d="M9.953 24.374l6.745-2.538 2.46-.926 3.25-1.223H0l9.953 4.687zm85.385-2.777v1.423h1.903v-7.135h-1.903v3.52l-2.472-1.97v-1.55h-1.904v7.135h1.904v-3.393l2.472 1.97zm-17.297-2.144c0 1.962 1.677 3.567 3.725 3.567 2.049 0 3.726-1.605 3.726-3.567 0-1.962-1.677-3.568-3.726-3.568-2.048 0-3.725 1.606-3.725 3.568zm-8.263 1.454l1.237 2.113h2.19l-1.499-2.559c.675-.45 1.118-1.197 1.118-2.039 0-1.367-1.167-2.485-2.595-2.485h-3.404v7.083h1.904v-2.113h1.049zm-1.158-1.979l.109.186v-1.457h1.5c.437 0 .8.347.8.765a.74.74 0 01-.213.517.815.815 0 01-.587.249H68.62v-.26zm-9.882-3.043v7.135h1.904v-7.135h-1.904zm-7.548 6.281l.407.854H53.5l-.407-.854-.809-1.698-1.662-3.484-.523-1.099h-.856l-.525 1.1-1.66 3.483-.81 1.698-.408.854h1.904l.407-.854h3.039zm-1.52-3.186l.71 1.488h-1.42l.71-1.488zm-19.19 9.147l-2.526-3.272a6.703 6.703 0 01-2.572.508c-2.365 0-4.433-1.212-5.567-3.021l-2.636.992c1.431 3.39 4.9 5.78 8.954 5.78 1.564 0 3.04-.355 4.347-.987zm1.394-.824L41.062 39.2V27.03l-6.296-3.019-3.741-1.794-4.892-2.346 3.232 4.183 2.509 3.249zm3.36-10.523l-3.467 1.272a5.987 5.987 0 01-.12 2.715l3.726 1.788a8.89 8.89 0 00.413-2.684 8.86 8.86 0 00-.553-3.09zm-.675-1.425l6.503-2.386V.8l-9.177 11.646-1.864 2.365-2.447 3.106 3.704-1.359 3.28-1.203zm-17.908 2.77h2.333c.51-2.942 3.18-5.185 6.398-5.185 1.231 0 2.382.329 3.362.898l1.748-2.218a9.962 9.962 0 00-4.36-.993c-4.707 0-8.629 3.228-9.48 7.498z" fill="#fff"/></svg>