<svg width="67" height="68" fill="none" xmlns="http://www.w3.org/2000/svg"><path d="M23.2 25.114c.81 0 1.472.674 1.472 1.5v22.42c0 .825-.662 1.5-1.472 1.5m0-25.42h-8.835c-.809 0-1.47.674-1.47 1.5v22.42c0 .825.662 1.5 1.47 1.5H23.2m0-25.42c1.963-3.113 5.889-3.224 8.833-4.835 2.861-1.758 3.96-3.89 4.903-6.95.453-1.466 1.802-2.532 3.398-2.532 1.817 0 3.316 1.381 3.533 3.166.082.688-.081 1.624-.217 2.31-.662 3.33-2.6 6.3-6.056 8.84h13.16c1.715 0 3.118 1.43 3.118 3.178 0 1.747-1.404 3.177-3.118 3.177h-1.963c1.715 0 3.118 1.43 3.118 3.179 0 1.747-1.403 3.177-3.118 3.177h-.735c1.715 0 3.118 1.43 3.118 3.177 0 1.75-1.404 3.179-3.118 3.179h-2.21c1.715 0 3.119 1.43 3.119 3.177s-1.404 3.177-3.118 3.177H23.2M43.859 2.766A31.779 31.779 0 0033.384 1C15.5 1 1 15.774 1 34c0 4.494.883 8.778 2.479 12.682m61.84-18.17A33.7 33.7 0 0165.767 34c0 18.224-14.498 33-32.382 33-7.893 0-15.119-2.885-20.734-7.67m6.133-16.38v2.834m41.128-30.71a33.136 33.136 0 012.928 5.2l-2.928-5.2z" stroke="url(#paint0_linear)" stroke-width="2" stroke-linecap="round" stroke-linejoin="round"/><defs><linearGradient id="paint0_linear" x1="33.383" y1="1" x2="33.383" y2="67" gradientUnits="userSpaceOnUse"><stop stop-color="#FFABAB"/><stop offset="1" stop-color="#2A1CC9"/></linearGradient></defs></svg>