<svg width="55" height="69" fill="none" xmlns="http://www.w3.org/2000/svg"><path d="M12.773 51.195l1.484 10.383m-6.093-11.15L10.676 68m29.58-28.607c.868 9.13-8.763 8.657-11.463 8.311l-18.741-1.336m15.112-15.152c3.977.254 10.36-.083 13.228 3.456 2.9 3.578 2.225 9.36.055 12.692-1.717 2.634-5.552 3.642-9.282 3.535-3.262-.286-4.163-.367-7.424-.652-3.33-.227-5.653.112-7.517.714-3.957.991-7.74-1.04-11.504-3.435l-1.718-15.79c-.06-1.232 1.306-1.394 3.032-1.288 2.603.168 12.769.234 21.13.768zm-18.531-.598l-.954-8.136c-.485-4.132-1.452-8.743.015-12.721 1.827-4.959 6.52-7.594 11.682-8.448 10.218-1.692 19.198 3.684 25.833 11.08a38.518 38.518 0 014.119 5.517c4.19 6.796 6.996 18.583 5.605 26.296-.319 1.762-1.422 8.225-3.63 8.326-2.042.092-3.281-2.095-4.127-3.638-.446-.816-.715-1.47-.834-1.992-.62-1.663-.448-3.572.27-5.651.888-2.574 1.9-3.942 2.172-6.938.556-6.09-3.054-12.737-6.767-17.322-5.134-6.343-12.143-11.353-20.65-10.095-3.877.572-7.283 2.246-8.553 6.146-.91 2.798-.335 5.73-.01 8.578.353 3.111.818 9.053.818 9.053l-4.989-.055zm25.105 4.991a4.415 4.415 0 100 8.83 4.415 4.415 0 100-8.83z" stroke="url(#paint0_linear)" stroke-width="2" stroke-linecap="round" stroke-linejoin="round"/><defs><linearGradient id="paint0_linear" x1="27.146" y1="1" x2="27.146" y2="68" gradientUnits="userSpaceOnUse"><stop stop-color="#FFABAB"/><stop offset="1" stop-color="#2A1CC9"/></linearGradient></defs></svg>