<svg width="37" height="68" fill="none" xmlns="http://www.w3.org/2000/svg"><path d="M17.966 58.045v4.83c.603 11.068 13.452-4.222 17.604.91.084.106.352.497.404.648M5.241 33.097l10.61-10.652m0 10.652L5.24 22.445m14.856-.878c.063-3.665 2.838-5.553 5.535-5.566a4.874 4.874 0 013.701 1.627 5.316 5.316 0 011.341 3.939c-.88 5.594-9.64 6.892-10.425 11.53H30.6M1 7.125h33.936M1 47.325h33.936m0-30.202v37.093c0 2.105-1.717 3.829-3.815 3.829H4.813C2.717 58.045 1 56.321 1 54.217V4.827C1 2.722 2.717 1 4.813 1H31.12c2.098 0 3.815 1.722 3.815 3.827v12.296zM17.968 50.336a2.387 2.387 0 012.381 2.393 2.387 2.387 0 01-2.381 2.393 2.389 2.389 0 01-2.385-2.393 2.389 2.389 0 012.385-2.393z" stroke="url(#paint0_linear)" stroke-width="2" stroke-linecap="round" stroke-linejoin="round"/><defs><linearGradient id="paint0_linear" x1="18.487" y1="1" x2="18.487" y2="67" gradientUnits="userSpaceOnUse"><stop stop-color="#FFABAB"/><stop offset="1" stop-color="#2A1CC9"/></linearGradient></defs></svg>