<svg width="58" height="57" fill="none" xmlns="http://www.w3.org/2000/svg"><path clip-rule="evenodd" d="M28.79 6.641c12.2 0 22.088 9.787 22.088 21.86 0 12.072-9.888 21.859-22.087 21.859-12.2 0-22.09-9.787-22.09-21.86 0-12.072 9.89-21.859 22.09-21.859zm0 11.048c6.034 0 10.924 4.84 10.924 10.812 0 5.97-4.89 10.811-10.923 10.811-6.036 0-10.926-4.841-10.926-10.811 0-5.973 4.89-10.812 10.926-10.812zM9.139 47.946l-1.762 1.746 1.762-1.746zm39.303 0l1.762 1.746-1.762-1.746zM9.138 9.053L7.376 7.309l1.762 1.744zm39.303 0l1.762-1.744-1.762 1.744zM13.584 5.475L11.153 3.07C8.937.876 5.309.876 3.09 3.07a5.618 5.618 0 000 7.978l2.43 2.404c-6.028 9.11-6.028 20.984 0 30.093l-2.43 2.406a5.618 5.618 0 000 7.978c2.218 2.195 5.846 2.195 8.062 0l2.431-2.405c9.207 5.966 21.204 5.968 30.41 0l2.432 2.405c2.216 2.195 5.844 2.195 8.062 0a5.618 5.618 0 000-7.978l-2.431-2.406c6.03-9.109 6.03-20.982 0-30.093l2.431-2.404a5.618 5.618 0 000-7.978c-2.218-2.195-5.846-2.195-8.062 0l-2.431 2.404c-9.207-5.967-21.204-5.967-30.41 0zm15.207 17.15c3.277 0 5.937 2.63 5.937 5.876 0 3.245-2.66 5.875-5.938 5.875-3.279 0-5.94-2.63-5.94-5.875 0-3.246 2.661-5.876 5.94-5.876z" stroke="url(#paint0_linear)" stroke-width="2" stroke-linecap="round" stroke-linejoin="round"/><defs><linearGradient id="paint0_linear" x1="28.79" y1="1" x2="28.79" y2="56" gradientUnits="userSpaceOnUse"><stop stop-color="#FFABAB"/><stop offset="1" stop-color="#2A1CC9"/></linearGradient></defs></svg>