<svg xmlns="http://www.w3.org/2000/svg" xmlns:xlink="http://www.w3.org/1999/xlink"><defs><linearGradient id="paint0_linear" x1="18.075" y1="1" x2="18.075" y2="64" gradientUnits="userSpaceOnUse"><stop stop-color="#FFABAB"/><stop offset="1" stop-color="#2A1CC9"/></linearGradient><linearGradient id="paint0_linear" x1="27.146" y1="1" x2="27.146" y2="68" gradientUnits="userSpaceOnUse"><stop stop-color="#FFABAB"/><stop offset="1" stop-color="#2A1CC9"/></linearGradient><linearGradient id="paint0_linear" x1="27.939" y1="1" x2="27.939" y2="61" gradientUnits="userSpaceOnUse"><stop stop-color="#FFABAB"/><stop offset="1" stop-color="#2A1CC9"/></linearGradient><linearGradient id="paint0_linear" x1="18.487" y1="1" x2="18.487" y2="67" gradientUnits="userSpaceOnUse"><stop stop-color="#FFABAB"/><stop offset="1" stop-color="#2A1CC9"/></linearGradient><linearGradient id="paint0_linear" x1="29.855" y1="1" x2="29.855" y2="66" gradientUnits="userSpaceOnUse"><stop stop-color="#FFABAB"/><stop offset="1" stop-color="#2A1CC9"/></linearGradient><linearGradient id="paint0_linear" x1="18.024" y1="1" x2="18.024" y2="68" gradientUnits="userSpaceOnUse"><stop stop-color="#FFABAB"/><stop offset="1" stop-color="#2A1CC9"/></linearGradient><linearGradient id="paint0_linear" x1="33.383" y1="1" x2="33.383" y2="67" gradientUnits="userSpaceOnUse"><stop stop-color="#FFABAB"/><stop offset="1" stop-color="#2A1CC9"/></linearGradient><linearGradient id="paint0_linear" x1="28.79" y1="1" x2="28.79" y2="56" gradientUnits="userSpaceOnUse"><stop stop-color="#FFABAB"/><stop offset="1" stop-color="#2A1CC9"/></linearGradient><linearGradient id="paint0_linear" x1="33.5" y1="1" x2="33.5" y2="51.283" gradientUnits="userSpaceOnUse"><stop stop-color="#FFABAB"/><stop offset="1" stop-color="#2A1CC9"/></linearGradient></defs><symbol id="icon-battery"><path d="M6.548 29.6l23.056 7.93M1 15.929v42.909C1 61.677 3.289 64 6.086 64h23.978c2.797 0 5.086-2.324 5.086-5.163V12.605c0-2.84-2.29-5.164-5.086-5.164h-3.307a1.244 1.244 0 01-1.053-1.219V3.04c0-1.12-.904-2.04-2.008-2.04H12.454c-1.104 0-2.009.918-2.009 2.04v3.168c0 .626-.458 1.146-1.052 1.233H6.086C3.289 7.441 1 9.765 1 12.605v3.323zm28.604 7.503L6.548 15.5v39.328c0 1.641 1.322 2.984 2.939 2.984h17.178c1.616 0 2.939-1.343 2.939-2.984V23.43zM6.548 43.261l23.056 7.93-23.056-7.93z" stroke="url(#paint0_linear)" stroke-width="2" stroke-linecap="round" stroke-linejoin="round"/></symbol><symbol id="icon-bluetooth"><path d="M12.773 51.195l1.484 10.383m-6.093-11.15L10.676 68m29.58-28.607c.868 9.13-8.763 8.657-11.463 8.311l-18.741-1.336m15.112-15.152c3.977.254 10.36-.083 13.228 3.456 2.9 3.578 2.225 9.36.055 12.692-1.717 2.634-5.552 3.642-9.282 3.535-3.262-.286-4.163-.367-7.424-.652-3.33-.227-5.653.112-7.517.714-3.957.991-7.74-1.04-11.504-3.435l-1.718-15.79c-.06-1.232 1.306-1.394 3.032-1.288 2.603.168 12.769.234 21.13.768zm-18.531-.598l-.954-8.136c-.485-4.132-1.452-8.743.015-12.721 1.827-4.959 6.52-7.594 11.682-8.448 10.218-1.692 19.198 3.684 25.833 11.08a38.518 38.518 0 014.119 5.517c4.19 6.796 6.996 18.583 5.605 26.296-.319 1.762-1.422 8.225-3.63 8.326-2.042.092-3.281-2.095-4.127-3.638-.446-.816-.715-1.47-.834-1.992-.62-1.663-.448-3.572.27-5.651.888-2.574 1.9-3.942 2.172-6.938.556-6.09-3.054-12.737-6.767-17.322-5.134-6.343-12.143-11.353-20.65-10.095-3.877.572-7.283 2.246-8.553 6.146-.91 2.798-.335 5.73-.01 8.578.353 3.111.818 9.053.818 9.053l-4.989-.055zm25.105 4.991a4.415 4.415 0 100 8.83 4.415 4.415 0 100-8.83z" stroke="url(#paint0_linear)" stroke-width="2" stroke-linecap="round" stroke-linejoin="round"/></symbol><symbol id="icon-buttons"><path d="M14.549 49.693h2.2c.766 0 1.394-.699 1.394-1.554v-6.423c0-.855-.628-1.555-1.393-1.555h-2.201V6.551C14.549 3.496 12.309 1 9.57 1 6.834 1 4.594 3.498 4.594 6.55v33.611m9.955 9.532h-4.463m4.463 0v5.757c0 3.052-2.24 5.55-4.978 5.55-2.737 0-4.977-2.498-4.977-5.55v-5.757m9.955 0H4.594M41.33 37.946h4.462m-4.462 0h-2.201c-.767 0-1.394-.698-1.394-1.555v-6.423c0-.855.627-1.553 1.394-1.553h14.356c.765 0 1.393.698 1.393 1.553v6.423c0 .857-.628 1.555-1.393 1.555h-2.2V55.45c0 3.052-2.24 5.55-4.979 5.55-2.736 0-4.976-2.498-4.976-5.55V37.946zM22.963 9.143h4.46m-4.46 0h-2.201c-.768 0-1.394.698-1.394 1.553v6.423c0 .855.626 1.553 1.394 1.553h2.2m0-9.53V6.55c0-3.052 2.24-5.55 4.977-5.55 2.736 0 4.976 2.498 4.976 5.55v2.593h2.201c.767 0 1.393.698 1.393 1.553v6.423c0 .855-.626 1.553-1.393 1.553h-2.201m-28.32 31.02H2.392C1.628 49.693 1 48.995 1 48.14v-6.423c0-.855.628-1.555 1.393-1.555h2.201m0 0h4.882m23.439-21.489V55.45c0 3.052-2.24 5.55-4.976 5.55-2.737 0-4.976-2.498-4.976-5.55V18.672m9.952 0h-9.952M46.305 1c2.738 0 4.978 2.498 4.978 5.55v21.864H41.33V6.55c0-3.052 2.24-5.55 4.976-5.55z" stroke="url(#paint0_linear)" stroke-width="2" stroke-linecap="round" stroke-linejoin="round"/></symbol><symbol id="icon-connection"><path d="M17.966 58.045v4.83c.603 11.068 13.452-4.222 17.604.91.084.106.352.497.404.648M5.241 33.097l10.61-10.652m0 10.652L5.24 22.445m14.856-.878c.063-3.665 2.838-5.553 5.535-5.566a4.874 4.874 0 013.701 1.627 5.316 5.316 0 011.341 3.939c-.88 5.594-9.64 6.892-10.425 11.53H30.6M1 7.125h33.936M1 47.325h33.936m0-30.202v37.093c0 2.105-1.717 3.829-3.815 3.829H4.813C2.717 58.045 1 56.321 1 54.217V4.827C1 2.722 2.717 1 4.813 1H31.12c2.098 0 3.815 1.722 3.815 3.827v12.296zM17.968 50.336a2.387 2.387 0 012.381 2.393 2.387 2.387 0 01-2.381 2.393 2.389 2.389 0 01-2.385-2.393 2.389 2.389 0 012.385-2.393z" stroke="url(#paint0_linear)" stroke-width="2" stroke-linecap="round" stroke-linejoin="round"/></symbol><symbol id="icon-ipx7"><path d="M1 56.41C4.172 57.483 6.236 66 10.726 66c4.49 0 5-9.59 9.458-9.59S25.183 66 29.64 66c4.989 0 5.848-9.59 10.154-9.59 4.46 0 5 9.59 9.456 9.59 4.46 0 6.286-8.517 9.46-9.59M29.853 44.378c-6.44 0-11.66-5.294-11.66-11.826M29.852 1C16.936 15.903 11.334 25.56 11.915 30.783c-.056.58-.085 1.171-.085 1.769 0 10.095 8.07 18.279 18.023 18.279 9.956 0 18.023-8.184 18.023-18.28 0-.597-.027-1.188-.082-1.768.58-5.223-5.024-14.88-17.94-29.783z" stroke="url(#paint0_linear)" stroke-width="2" stroke-linecap="round" stroke-linejoin="round"/></symbol><symbol id="icon-logo" viewBox="0 0 98 40"><path fill-rule="evenodd" clip-rule="evenodd" d="M9.953 24.374l6.745-2.538 2.46-.926 3.25-1.223H0l9.953 4.687zm85.385-2.777v1.423h1.903v-7.135h-1.903v3.52l-2.472-1.97v-1.55h-1.904v7.135h1.904v-3.393l2.472 1.97zm-17.297-2.144c0 1.962 1.677 3.567 3.725 3.567 2.049 0 3.726-1.605 3.726-3.567 0-1.962-1.677-3.568-3.726-3.568-2.048 0-3.725 1.606-3.725 3.568zm-8.263 1.454l1.237 2.113h2.19l-1.499-2.559c.675-.45 1.118-1.197 1.118-2.039 0-1.367-1.167-2.485-2.595-2.485h-3.404v7.083h1.904v-2.113h1.049zm-1.158-1.979l.109.186v-1.457h1.5c.437 0 .8.347.8.765a.74.74 0 01-.213.517.815.815 0 01-.587.249H68.62v-.26zm-9.882-3.043v7.135h1.904v-7.135h-1.904zm-7.548 6.281l.407.854H53.5l-.407-.854-.809-1.698-1.662-3.484-.523-1.099h-.856l-.525 1.1-1.66 3.483-.81 1.698-.408.854h1.904l.407-.854h3.039zm-1.52-3.186l.71 1.488h-1.42l.71-1.488zm-19.19 9.147l-2.526-3.272a6.703 6.703 0 01-2.572.508c-2.365 0-4.433-1.212-5.567-3.021l-2.636.992c1.431 3.39 4.9 5.78 8.954 5.78 1.564 0 3.04-.355 4.347-.987zm1.394-.824L41.062 39.2V27.03l-6.296-3.019-3.741-1.794-4.892-2.346 3.232 4.183 2.509 3.249zm3.36-10.523l-3.467 1.272a5.987 5.987 0 01-.12 2.715l3.726 1.788a8.89 8.89 0 00.413-2.684 8.86 8.86 0 00-.553-3.09zm-.675-1.425l6.503-2.386V.8l-9.177 11.646-1.864 2.365-2.447 3.106 3.704-1.359 3.28-1.203zm-17.908 2.77h2.333c.51-2.942 3.18-5.185 6.398-5.185 1.231 0 2.382.329 3.362.898l1.748-2.218a9.962 9.962 0 00-4.36-.993c-4.707 0-8.629 3.228-9.48 7.498z" fill="#fff"/></symbol><symbol id="icon-noise"><path d="M35.047 18.047c0 9.417-7.62 17.05-17.023 17.05C8.622 35.097 1 27.464 1 18.047 1 8.63 8.622 1 18.024 1c3.39 0 6.547.991 9.2 2.7m-9.2 53.704C18.037 62.246 16.725 68 26.508 68m-.845-30.344V53.97c0 1.887-1.388 3.434-3.085 3.434h-9.11c-1.693 0-3.082-1.545-3.082-3.434V37.656M27.224 9.279L9.902 26.626M6.4 15.543l13.982 14M9.451 9.28l17.32 17.347M15.278 5.864l14.995 15.014" stroke="url(#paint0_linear)" stroke-width="2" stroke-linecap="round" stroke-linejoin="round"/></symbol><symbol id="icon-play-circle"><path fill-rule="evenodd" clip-rule="evenodd" d="M42.5 0C65.972 0 85 19.028 85 42.5S65.972 85 42.5 85 0 65.972 0 42.5 19.028 0 42.5 0z" fill="#000" fill-opacity=".3"/></symbol><symbol id="icon-play-triangle"><path fill-rule="evenodd" clip-rule="evenodd" d="M21.326 16.136a2 2 0 000-3.272l-9.15-6.44L3.85.567C2.526-.365.701.582.701 2.203v24.594c0 1.62 1.825 2.568 3.15 1.636l8.324-5.857 9.151-6.44z" fill="#fff"/></symbol><symbol id="icon-play"><path fill-rule="evenodd" clip-rule="evenodd" d="M42.5 0C65.972 0 85 19.028 85 42.5S65.972 85 42.5 85 0 65.972 0 42.5 19.028 0 42.5 0z" fill="#000" fill-opacity=".3"/><path fill-rule="evenodd" clip-rule="evenodd" d="M56.325 44.136a2 2 0 000-3.272l-9.15-6.44-8.325-5.857c-1.325-.932-3.15.015-3.15 1.636v24.594c0 1.62 1.825 2.568 3.15 1.636l8.325-5.857 9.15-6.44z" fill="#fff"/></symbol><symbol id="icon-soft-touth"><path d="M23.2 25.114c.81 0 1.472.674 1.472 1.5v22.42c0 .825-.662 1.5-1.472 1.5m0-25.42h-8.835c-.809 0-1.47.674-1.47 1.5v22.42c0 .825.662 1.5 1.47 1.5H23.2m0-25.42c1.963-3.113 5.889-3.224 8.833-4.835 2.861-1.758 3.96-3.89 4.903-6.95.453-1.466 1.802-2.532 3.398-2.532 1.817 0 3.316 1.381 3.533 3.166.082.688-.081 1.624-.217 2.31-.662 3.33-2.6 6.3-6.056 8.84h13.16c1.715 0 3.118 1.43 3.118 3.178 0 1.747-1.404 3.177-3.118 3.177h-1.963c1.715 0 3.118 1.43 3.118 3.179 0 1.747-1.403 3.177-3.118 3.177h-.735c1.715 0 3.118 1.43 3.118 3.177 0 1.75-1.404 3.179-3.118 3.179h-2.21c1.715 0 3.119 1.43 3.119 3.177s-1.404 3.177-3.118 3.177H23.2M43.859 2.766A31.779 31.779 0 0033.384 1C15.5 1 1 15.774 1 34c0 4.494.883 8.778 2.479 12.682m61.84-18.17A33.7 33.7 0 0165.767 34c0 18.224-14.498 33-32.382 33-7.893 0-15.119-2.885-20.734-7.67m6.133-16.38v2.834m41.128-30.71a33.136 33.136 0 012.928 5.2l-2.928-5.2z" stroke="url(#paint0_linear)" stroke-width="2" stroke-linecap="round" stroke-linejoin="round"/></symbol><symbol id="icon-sound"><path clip-rule="evenodd" d="M28.79 6.641c12.2 0 22.088 9.787 22.088 21.86 0 12.072-9.888 21.859-22.087 21.859-12.2 0-22.09-9.787-22.09-21.86 0-12.072 9.89-21.859 22.09-21.859zm0 11.048c6.034 0 10.924 4.84 10.924 10.812 0 5.97-4.89 10.811-10.923 10.811-6.036 0-10.926-4.841-10.926-10.811 0-5.973 4.89-10.812 10.926-10.812zM9.139 47.946l-1.762 1.746 1.762-1.746zm39.303 0l1.762 1.746-1.762-1.746zM9.138 9.053L7.376 7.309l1.762 1.744zm39.303 0l1.762-1.744-1.762 1.744zM13.584 5.475L11.153 3.07C8.937.876 5.309.876 3.09 3.07a5.618 5.618 0 000 7.978l2.43 2.404c-6.028 9.11-6.028 20.984 0 30.093l-2.43 2.406a5.618 5.618 0 000 7.978c2.218 2.195 5.846 2.195 8.062 0l2.431-2.405c9.207 5.966 21.204 5.968 30.41 0l2.432 2.405c2.216 2.195 5.844 2.195 8.062 0a5.618 5.618 0 000-7.978l-2.431-2.406c6.03-9.109 6.03-20.982 0-30.093l2.431-2.404a5.618 5.618 0 000-7.978c-2.218-2.195-5.846-2.195-8.062 0l-2.431 2.404c-9.207-5.967-21.204-5.967-30.41 0zm15.207 17.15c3.277 0 5.937 2.63 5.937 5.876 0 3.245-2.66 5.875-5.938 5.875-3.279 0-5.94-2.63-5.94-5.875 0-3.246 2.661-5.876 5.94-5.876z" stroke="url(#paint0_linear)" stroke-width="2" stroke-linecap="round" stroke-linejoin="round"/></symbol><symbol id="icon-wi-fi"><path clip-rule="evenodd" d="M33.494 40.825c2.869 0 5.197 2.34 5.197 5.229 0 2.889-2.328 5.229-5.197 5.229-2.871 0-5.198-2.34-5.198-5.229 0-2.889 2.327-5.229 5.198-5.229zM7.974 19.464a4.131 4.131 0 01-5.862-.213 4.193 4.193 0 01.21-5.9 45.782 45.782 0 0114.437-9.165A45.386 45.386 0 0133.494 1c5.895 0 11.545 1.13 16.74 3.19a45.74 45.74 0 0114.442 9.174 4.19 4.19 0 01.212 5.9 4.134 4.134 0 01-5.864.213c-7.922-6.642-16.01-10.11-25.53-10.11-9.515 0-17.015 2.875-25.52 10.097zm8.498 9.613a4.144 4.144 0 01-5.88.065 4.201 4.201 0 01-.066-5.916 32.158 32.158 0 0110.521-7.188 31.859 31.859 0 0112.447-2.535c4.458 0 8.72.924 12.604 2.594a32.163 32.163 0 0110.592 7.4 4.176 4.176 0 01-.13 5.881 4.118 4.118 0 01-5.848-.129c-5.356-4.954-10.705-7.38-17.218-7.38-6.484 0-11.32 2.118-17.022 7.207zm7.287 9.728a4.137 4.137 0 01-5.847.523 4.196 4.196 0 01-.52-5.885c3.997-4.788 9.884-7.565 16.102-7.565 6.386 0 12.415 2.948 16.401 7.957a4.181 4.181 0 01-.65 5.851 4.12 4.12 0 01-5.813-.653c-2.85-3.062-5.646-4.789-9.938-4.789-5.453 0-8.794 3.667-9.735 4.561z" stroke="url(#paint0_linear)" stroke-width="2" stroke-linecap="round" stroke-linejoin="round"/></symbol></svg>