<svg xmlns="http://www.w3.org/2000/svg" xmlns:xlink="http://www.w3.org/1999/xlink"><symbol id="icon-1" viewBox="0 0 27 41">
<path fill-rule="evenodd" clip-rule="evenodd" d="M1 4.32434C1 2.71932 2.32462 1.40625 3.94376 1.40625H23.0562C24.6754 1.40625 26 2.71932 26 4.32434V37.4847C26 39.0898 24.6754 40.4028 23.0562 40.4028H3.94376C2.32462 40.4028 1 39.0898 1 37.4847V4.32434ZM13.4972 31.0608C12.1459 31.0608 11.0503 32.1468 11.0503 33.4863C11.0503 34.8259 12.1459 35.9119 13.4972 35.9119C14.8486 35.9119 15.9441 34.8259 15.9441 33.4863C15.9441 32.1468 14.8486 31.0608 13.4972 31.0608Z" stroke="black"/>
</symbol><symbol id="icon-2" viewBox="0 0 61 36">
<path d="M19.7254 1.40625H41.6V19.8558M33.1979 22.0713H1M33.1979 14.6987H6.97789M33.1979 7.32637H12.7722M41.6 6.57891H51.0159C53.289 6.7738 54.8969 7.93039 56.0114 9.8002L59.9971 19.1431V28.4011C60.0467 29.9634 59.4537 30.6868 58.2956 30.6728H51.7229M51.7229 30.6728C51.7229 33.2851 49.6475 35.4028 47.0875 35.4028C44.5272 35.4028 42.4518 33.2851 42.4518 30.6728M51.7229 30.6728C51.7229 29.3479 51.189 28.1504 50.3287 27.2916C49.4929 26.457 48.3492 25.9425 47.0875 25.9425C44.5272 25.9425 42.4518 28.0604 42.4518 30.6728M42.4518 30.6728H23.7649M23.7649 30.6728C23.7649 33.2851 21.6893 35.4028 19.1292 35.4028C16.5692 35.4028 14.4936 33.2851 14.4936 30.6728M23.7649 30.6728C23.7649 28.0604 21.6893 25.9425 19.1292 25.9425C16.5692 25.9425 14.4936 28.0604 14.4936 30.6728M14.4936 30.6728H5.09466" stroke="black" stroke-linecap="round" stroke-linejoin="round"/>
</symbol><symbol id="icon-3" viewBox="0 0 32 41">
<path d="M6.53265 7.56095H25.4673M6.53265 12.8986H16.9222M6.53265 18.236H21.3101M6.53265 23.5734H25.4673M6.53265 28.9108H16.9222M6.53265 34.2481H21.3101M11.391 1.40625H3.91686C2.31248 1.40625 1 2.74567 1 4.38299V37.4261C1 39.0634 2.31248 40.4028 3.91686 40.4028H28.0831C29.6875 40.4028 31 39.0634 31 37.4261V4.38299C31 2.74567 29.6875 1.40625 28.0831 1.40625H11.391Z" stroke="black" stroke-linecap="round" stroke-linejoin="round"/>
</symbol><symbol id="icon-4" viewBox="0 0 36 41">
<path d="M10.2555 15.8076V4.49241C10.2555 2.79496 11.658 1.40625 13.3723 1.40625H22.6276C24.3418 1.40625 25.7443 2.79549 25.7443 4.49241V15.8076M10.2555 15.8076C11.4865 15.8076 12.4843 16.7957 12.4843 18.0145C12.4843 19.2334 11.4865 20.2215 10.2555 20.2215C9.02454 20.2215 8.02667 19.2334 8.02667 18.0145C8.02667 16.7957 9.02454 15.8076 10.2555 15.8076ZM25.7443 15.8076C26.9753 15.8076 27.9732 16.7957 27.9732 18.0145C27.9732 19.2334 26.9753 20.2215 25.7443 20.2215C24.5134 20.2215 23.5155 19.2334 23.5155 18.0145C23.5155 16.8004 24.5057 15.8156 25.73 15.8078L25.7443 15.8076ZM31.4112 8.69971L35 40.4028H1L4.58883 8.69971H31.4112Z" stroke="black" stroke-linecap="round" stroke-linejoin="round"/>
</symbol></svg>