<svg width="1600" height="9136" viewBox="0 0 1600 9136" fill="none" xmlns="http://www.w3.org/2000/svg">
<path opacity="0.07" d="M643.5 535.192C643.5 901.327 348.453 1198.13 -15.5 1198.13C-379.453 1198.13 -674.5 901.327 -674.5 535.192C-674.5 169.057 -379.453 -127.749 -15.5 -127.749C348.453 -127.749 643.5 169.057 643.5 535.192Z" stroke="#212121"/>
<path opacity="0.07" d="M341.5 535.192C341.5 733.54 181.663 894.328 -15.5 894.328C-212.663 894.328 -372.5 733.54 -372.5 535.192C-372.5 336.844 -212.663 176.056 -15.5 176.056C181.663 176.056 341.5 336.844 341.5 535.192Z" stroke="#212121"/>
<circle opacity="0.07" cx="-107.5" cy="4330.5" r="659" stroke="#212121"/>
<circle opacity="0.07" cx="-107.5" cy="4330.5" r="357" stroke="#212121"/>
<circle opacity="0.07" cx="1780.5" cy="8570.5" r="565" stroke="#212121"/>
<circle opacity="0.07" cx="1780.5" cy="8570.5" r="306.045" stroke="#212121"/>
</svg>
