<svg width="39" height="39" viewBox="0 0 39 39" fill="none" xmlns="http://www.w3.org/2000/svg">
<path opacity="0.95" d="M26.902 14.4969C26.7503 14.1764 26.4328 14 26.0082 14C25.6991 14 25.4273 14.093 25.3955 14.1046C25.3052 14.1372 16.337 17.3838 12.6593 18.8139C12.3369 18.9387 12.128 19.1148 12.0383 19.3378C11.901 19.6825 12.1585 20.037 12.4035 20.1397C13.3171 20.5209 15.2183 21.0502 15.814 21.2127C16.0104 21.8313 16.6965 23.9889 17.0161 24.9128C17.1 25.1533 17.3453 25.297 17.6732 25.297C17.7216 25.297 17.7525 25.294 17.7525 25.294C17.8407 25.2847 17.9171 25.242 17.9726 25.1813C18.0194 25.1304 18.0519 25.0673 18.0571 24.9965L18.2472 22.3903C18.6069 22.6461 19.1303 23.0178 19.7086 23.4272C20.8528 24.2374 22.216 25.1982 22.9787 25.7207C23.2496 25.9062 23.5115 26 23.758 26C24.3104 26 24.6276 25.552 24.7317 25.1685C25.3635 22.8383 26.2904 18.4345 26.8446 15.8034L26.9658 15.2277C27.0425 14.8641 26.9765 14.6543 26.902 14.4969ZM17.6136 21.7563L17.4446 24.0708C17.0283 22.8132 16.4178 20.8827 16.4104 20.8596C16.4084 20.853 16.4021 20.8491 16.3995 20.8427L16.3978 20.8289L23.4096 16.5041C23.4096 16.5041 23.8875 16.1937 24.0691 16.1559C24.3141 16.1052 24.3729 16.1972 24.3289 16.2528C24.1593 16.4686 23.3552 17.1258 23.3552 17.1258L17.7658 21.5106L17.766 21.5135C17.6793 21.5679 17.621 21.656 17.6136 21.7563Z" fill="#E8152E"/>
</svg>
