<svg width="62" height="62" viewBox="0 0 62 62" fill="none" xmlns="http://www.w3.org/2000/svg">
<path opacity="0.95" d="M38.9784 27.3731C38.9784 23.3076 34.4971 20 28.9893 20C23.481 20 19 23.3076 19 27.3731C19 29.6807 20.4074 31.7973 22.8688 33.2041C22.4575 34.7867 21.8016 36.8236 20.9451 37.9124C20.8878 37.9854 20.8776 38.0875 20.9197 38.1715C20.9583 38.2487 21.0344 38.297 21.1166 38.297C21.1233 38.297 21.1303 38.2965 21.1371 38.2959C21.324 38.2781 25.7135 37.822 28.5229 34.7379C28.6775 34.7429 28.8328 34.746 28.9891 34.746C34.4971 34.746 38.9784 31.4387 38.9784 27.3731Z" fill="#E8152E"/>
<path opacity="0.95" d="M43.5138 29.3835C43.5138 26.6792 41.5308 24.3126 38.5828 23.0293C39.6856 24.3473 40.3283 25.9123 40.3283 27.5919C40.3283 32.2602 35.3811 36.0591 29.3005 36.0591C29.297 36.0591 29.293 36.0591 29.2896 36.0591C30.5763 36.5051 32.0114 36.7564 33.5248 36.7564C33.6811 36.7564 33.8364 36.7532 33.9909 36.748C36.8005 39.8329 41.19 40.2879 41.377 40.3061C41.3835 40.3068 41.3902 40.3071 41.3974 40.3071C41.4794 40.3071 41.5557 40.2593 41.5941 40.1821C41.6365 40.0979 41.6263 39.9957 41.5687 39.9233C40.7122 38.8345 40.0566 36.7981 39.645 35.2144C42.1061 33.8082 43.5138 31.691 43.5138 29.3835Z" fill="#E8152E"/>
</svg>
