<svg width="39" height="39" viewBox="0 0 39 39" fill="none" xmlns="http://www.w3.org/2000/svg">
<path d="M23.6689 12H16.331C13.9429 12 12 13.9429 12 16.331V23.669C12 26.0571 13.9429 28 16.331 28H23.669C26.0571 28 28 26.0571 28 23.669V16.331C28 13.9429 26.0571 12 23.6689 12V12ZM20 24.3749C17.5876 24.3749 15.6251 22.4123 15.6251 20C15.6251 17.5876 17.5876 15.6251 20 15.6251C22.4123 15.6251 24.3749 17.5876 24.3749 20C24.3749 22.4123 22.4123 24.3749 20 24.3749ZM24.4795 16.6569C23.7666 16.6569 23.1867 16.077 23.1867 15.3641C23.1867 14.6512 23.7666 14.0713 24.4795 14.0713C25.1924 14.0713 25.7723 14.6512 25.7723 15.3641C25.7723 16.077 25.1924 16.6569 24.4795 16.6569Z" fill="#E8152E"/>
<path d="M19.9999 16.563C18.1049 16.563 16.563 18.1047 16.563 19.9999C16.563 21.8949 18.1049 23.4368 19.9999 23.4368C21.895 23.4368 23.4368 21.8949 23.4368 19.9999C23.4368 18.1047 21.895 16.563 19.9999 16.563Z" fill="#E8152E"/>
<path d="M24.4792 15.0098C24.2837 15.0098 24.1245 15.1689 24.1245 15.3645C24.1245 15.5601 24.2837 15.7192 24.4792 15.7192C24.6749 15.7192 24.8341 15.5602 24.8341 15.3645C24.8341 15.1688 24.6749 15.0098 24.4792 15.0098Z" fill="#E8152E"/>
</svg>
