<svg width="189" height="35" viewBox="0 0 189 35" fill="none" xmlns="http://www.w3.org/2000/svg">
<g clip-path="url(#clip0)">
<path d="M54.9127 14.2473L51.6893 25.9447H47.1032L42.103 7.21341H47.1294L49.7134 19.8703H49.8234L53.0153 7.21341H56.9148L60.112 19.8703H60.2168L62.806 7.21341H67.8481L62.848 25.9447H58.2566L55.0332 14.2473H54.9127ZM82.2826 22.102V25.9447H69.1794V7.21341H82.2826V11.0561H74.0328V14.7808H81.7951V18.285H74.0328V22.102H82.2826ZM93.5303 25.9447H84.3738V7.21341H93.284C95.1709 7.21341 96.6436 7.62897 97.7128 8.46011C98.2395 8.86553 98.66 9.38775 98.9398 9.98365C99.2196 10.5796 99.3506 11.232 99.3219 11.8873C99.3414 12.8855 98.9658 13.8525 98.2737 14.5859C97.577 15.3378 96.6292 15.8217 95.6006 15.9506V16.0532C96.8353 16.0835 98.0127 16.5691 98.8974 17.4128C99.3284 17.8159 99.6693 18.3022 99.8984 18.8409C100.128 19.3795 100.24 19.9589 100.229 20.5424C100.258 21.2904 100.11 22.0349 99.7964 22.7176C99.4827 23.4004 99.0117 24.0027 98.4204 24.4774C97.1905 25.4522 95.5604 25.9413 93.5303 25.9447ZM89.2587 10.5893V14.8475H91.764C92.51 14.8945 93.2499 14.6899 93.8605 14.2678C94.0899 14.0757 94.2753 13.8383 94.4045 13.5713C94.5337 13.3042 94.6038 13.0134 94.6103 12.7179C94.6167 12.4225 94.5593 12.129 94.4418 11.8568C94.3244 11.5846 94.1495 11.3397 93.9287 11.1382C93.3802 10.7419 92.7065 10.5475 92.0261 10.5893H89.2587ZM89.2587 22.5689H92.1519C92.9733 22.6226 93.7888 22.3999 94.4633 21.9378C94.7327 21.7187 94.9457 21.4406 95.085 21.126C95.2243 20.8113 95.286 20.4691 95.2652 20.1268C95.2832 19.7895 95.2179 19.4529 95.0746 19.1457C94.9314 18.8384 94.7144 18.5695 94.4423 18.3619C93.7621 17.9086 92.9469 17.6902 92.1257 17.7411H89.2587V22.5689Z" fill="#E00822"/>
<path d="M106.214 25.9447H101.602V7.21342H105.486L113.605 18.1054H113.709V7.21342H118.322V25.9447H114.496L106.34 14.9502H106.23L106.214 25.9447ZM133.149 25.9447L131.938 21.8404H125.68L124.459 25.9447H119.501L125.932 7.21342H131.886L138.322 25.9447H133.149ZM128.757 11.1844L126.624 18.403H130.985L128.888 11.1844H128.757ZM143.757 7.21342V18.7929C143.698 19.7276 144.014 20.6481 144.638 21.3581C145.328 21.9505 146.215 22.2771 147.133 22.2771C148.051 22.2771 148.938 21.9505 149.628 21.3581C150.25 20.6473 150.564 19.7269 150.503 18.7929V7.21342H155.377V19.2957C155.415 20.2513 155.232 21.2029 154.842 22.0797C154.452 22.9564 153.864 23.7357 153.124 24.3594C151.618 25.6318 149.624 26.268 147.143 26.268C144.663 26.268 142.664 25.6318 141.147 24.3594C140.407 23.7357 139.819 22.9564 139.429 22.0797C139.039 21.2029 138.856 20.2513 138.894 19.2957V7.21342H143.757ZM166.908 25.9447H162.055V11.0664H156.777V7.22369H172.186V11.0664H166.908V25.9447ZM172.978 20.5167H177.606C177.658 20.8393 177.786 21.1457 177.979 21.4125C178.171 21.6793 178.424 21.8994 178.717 22.0558C179.421 22.4704 180.233 22.6787 181.054 22.6561C181.85 22.6923 182.639 22.4997 183.324 22.102C183.582 21.9671 183.799 21.768 183.954 21.5249C184.108 21.2817 184.195 21.003 184.204 20.7168C184.212 20.4748 184.155 20.235 184.038 20.0216C183.921 19.8082 183.749 19.6286 183.539 19.5009C182.817 19.1162 182.034 18.8558 181.222 18.7313L178.717 18.249C177.221 18.0478 175.825 17.3971 174.723 16.3867C174.27 15.9185 173.917 15.3665 173.685 14.763C173.452 14.1595 173.346 13.5167 173.371 12.8723C173.348 12.0361 173.529 11.2066 173.899 10.4526C174.269 9.69863 174.817 9.04195 175.499 8.53709C177.084 7.39627 179.02 6.81895 180.986 6.90047C183.355 6.90047 185.218 7.41352 186.573 8.43961C187.238 8.93354 187.773 9.57369 188.138 10.3082C188.502 11.0426 188.684 11.8508 188.67 12.6671H184.189C184.174 12.3483 184.082 12.0376 183.921 11.7603C183.759 11.483 183.533 11.2469 183.261 11.0715C182.606 10.6599 181.837 10.4557 181.06 10.4867C180.339 10.4517 179.625 10.6305 179.01 10.9997C178.771 11.1439 178.574 11.3463 178.438 11.5873C178.302 11.8282 178.232 12.0995 178.235 12.3747C178.231 12.6166 178.291 12.8553 178.408 13.0682C178.526 13.281 178.697 13.4609 178.905 13.5906C179.575 13.9801 180.315 14.238 181.086 14.3499L183.565 14.8014C185.445 15.1434 186.828 15.7539 187.716 16.633C188.169 17.1008 188.521 17.6541 188.749 18.2592C188.977 18.8642 189.077 19.5084 189.042 20.1524C189.071 21.0112 188.887 21.864 188.505 22.6378C188.124 23.4116 187.556 24.0833 186.851 24.5954C185.394 25.7036 183.432 26.256 180.965 26.2526C178.498 26.2491 176.577 25.7361 175.2 24.7134C174.507 24.2455 173.942 23.6181 173.554 22.8863C173.167 22.1546 172.969 21.3409 172.978 20.5167V20.5167Z" fill="#292623"/>
<path d="M35.5673 33.3994L32.9729 29.6439L33.235 29.8184C33.4364 29.9511 33.6787 30.0113 33.9204 29.9886C34.1621 29.9659 34.3883 29.8618 34.5603 29.6941C34.7323 29.5263 34.8395 29.3053 34.8635 29.0688C34.8876 28.8322 34.8269 28.5949 34.6921 28.3972L31.584 23.9029C33.4123 20.4337 33.9131 16.4388 32.996 12.6397C32.0789 8.84068 29.8043 5.48779 26.5829 3.18651C23.3616 0.885223 19.4058 -0.212781 15.4299 0.0907573C11.454 0.394295 7.71995 2.07937 4.90207 4.84171C2.08419 7.60405 0.368168 11.2616 0.0638834 15.1539C-0.240401 19.0462 0.887119 22.9168 3.24281 26.0666C5.5985 29.2165 9.02711 31.4381 12.9096 32.3303C16.792 33.2224 20.8724 32.7264 24.4139 30.9317L29.0001 33.9689C29.2018 34.1041 29.4455 34.1659 29.689 34.1438C29.9324 34.1216 30.1603 34.0169 30.3332 33.8476C30.5061 33.6784 30.6131 33.4553 30.6358 33.217C30.6584 32.9787 30.5952 32.7402 30.4571 32.5426L30.2789 32.281L34.1103 34.8462C34.3121 34.9814 34.5558 35.0432 34.7992 35.0211C35.0427 34.999 35.2706 34.8942 35.4435 34.725C35.6164 34.5557 35.7234 34.3326 35.746 34.0943C35.7686 33.856 35.7054 33.6175 35.5673 33.42V33.3994Z" fill="white"/>
<path d="M29.0942 25.8473C29.5653 25.2582 29.991 24.6357 30.3679 23.9849L33.8219 28.982L29.0942 25.8473ZM26.3845 28.4946C25.7837 28.9585 25.1476 29.377 24.4819 29.7464L29.5869 33.1274L26.3845 28.4946ZM26.3845 28.4946L34.6814 33.9944L29.0628 25.8473C28.6733 26.3374 28.2532 26.8034 27.8049 27.2427C27.3618 27.6798 26.8928 28.091 26.4002 28.474L26.3845 28.4946Z" fill="#E00822"/>
<path d="M5.59261 27.2479C3.65664 25.3546 2.25899 22.9996 1.5378 20.4155C0.816607 17.8315 0.796838 15.108 1.48051 12.5142C2.16417 9.9204 3.52758 7.54618 5.43593 5.62624C7.34427 3.7063 9.73147 2.30712 12.3615 1.56704C14.9916 0.826959 17.7734 0.771588 20.4321 1.40642C23.0907 2.04124 25.5341 3.34429 27.5205 5.18672C29.507 7.02914 30.9679 9.34716 31.7587 11.9116C32.5495 14.476 32.6429 17.1981 32.0296 19.8087C31.9388 20.1747 31.7501 20.5103 31.4828 20.7812C31.2155 21.052 30.8793 21.2482 30.5088 21.3496C30.1383 21.451 29.7469 21.4538 29.3748 21.358C29.0028 21.2621 28.6636 21.0709 28.3921 20.804V20.804L22.1655 14.7039C18.7482 11.364 14.4504 9.9377 11.6306 10.9638C11.5305 11.0006 11.4399 11.0581 11.3648 11.1325C11.2897 11.2069 11.2319 11.2964 11.1955 11.3948C10.1473 14.1549 11.5991 18.3619 15.0164 21.7019L21.2431 27.802C21.5157 28.067 21.7113 28.3983 21.8099 28.7618C21.9085 29.1253 21.9065 29.5079 21.804 29.8704C21.7016 30.2329 21.5024 30.5622 21.227 30.8244C20.9515 31.0866 20.6097 31.2723 20.2367 31.3625C17.6396 31.9477 14.9331 31.877 12.3715 31.1573C9.80996 30.4375 7.47729 29.0923 5.59261 27.2479V27.2479ZM28.6227 22.5432C27.5789 24.4887 26.0456 26.1414 24.1677 27.3454C20.4988 24.0157 17.1654 20.8502 15.3466 18.8031C11.8769 14.8937 11.8507 12.9339 11.8035 13.1596C11.6096 14.0831 12.1023 16.633 14.6967 19.6856C16.2691 21.5582 19.3142 24.4005 23.1194 27.9661C23.3254 28.2983 23.4308 28.6808 23.4234 29.0692C26.1706 27.6844 28.3943 25.4771 29.7706 22.769C29.5735 22.8072 29.3706 22.807 29.1737 22.7682C28.9767 22.7295 28.7894 22.653 28.6227 22.5432V22.5432Z" fill="#292623"/>
</g>
<defs>
<clipPath id="clip0">
<rect width="189" height="35" fill="white"/>
</clipPath>
</defs>
</svg>
